<svg width="140" height="27" viewBox="0 0 140 27" fill="none" xmlns="http://www.w3.org/2000/svg">
<g id="Calque_1" clip-path="url(#clip0_2006_865)">
<path id="Vector" d="M17.361 13.0222C17.0694 11.8708 16.6149 10.8556 15.9974 9.98215C15.3656 9.09169 14.5051 8.39124 13.4188 7.87512C12.3325 7.36183 10.9918 7.10377 9.39947 7.10377C7.58132 7.10377 5.969 7.5178 4.56823 8.34303C3.1646 9.1711 2.05542 10.3168 1.23211 11.7829C0.411655 13.2547 0 14.9647 0 16.9186C0 18.8725 0.417373 20.5088 1.24926 21.9749C2.08401 23.441 3.2132 24.5895 4.64256 25.4148C6.06906 26.2428 7.65565 26.6569 9.39947 26.6569C10.966 26.6569 12.2868 26.3478 13.3616 25.7352C14.4337 25.1227 15.2941 24.3258 15.9402 23.3474C16.5834 22.3691 17.058 21.3113 17.361 20.1713V21.8076C17.361 22.4853 17.3982 23.2482 17.4753 24.1018C17.5525 24.9554 17.6154 25.67 17.664 26.2457H21.6062V0H17.361V13.0222ZM16.5834 20.1543C16.066 21.1071 15.3084 21.853 14.3079 22.3918C13.3102 22.9306 12.1038 23.2 10.6887 23.2C9.45092 23.2 8.35032 22.9362 7.38979 22.4088C6.42926 21.8813 5.67741 21.144 5.13426 20.1912C4.5911 19.2383 4.31952 18.1494 4.31952 16.9186C4.31952 15.0384 4.87411 13.5043 5.98616 12.3132C7.0982 11.1222 8.66477 10.5266 10.6859 10.5266C12.101 10.5266 13.3016 10.7904 14.285 11.315C15.2713 11.8425 16.0288 12.5741 16.5606 13.5156C17.0923 14.4543 17.3581 15.5914 17.3581 16.9186C17.3581 18.121 17.098 19.2015 16.5806 20.1515L16.5834 20.1543Z" fill="#2D2D2D"/>
<path id="Vector_2" d="M41.9692 8.63228C40.4655 7.84392 38.5902 7.4469 36.3404 7.4469C34.0906 7.4469 32.2524 7.84675 30.5972 8.64929C28.942 9.45184 27.647 10.5918 26.7122 12.0721C25.7774 13.5525 25.3086 15.2795 25.3086 17.2617C25.3086 19.244 25.7889 20.9965 26.7494 22.4513C27.7099 23.9061 29.0364 25.0263 30.7287 25.8174C32.4211 26.6058 34.3421 27.0028 36.489 27.0028C38.3844 27.0028 40.0138 26.7192 41.3774 26.1577C42.7411 25.5934 43.8217 24.8164 44.6192 23.8267C45.414 22.837 45.9142 21.7026 46.1172 20.4237H42.0607C41.7577 21.3765 41.1059 22.1422 40.1082 22.7179C39.1105 23.2936 37.8784 23.5828 36.4119 23.5828C35.0968 23.5828 33.9476 23.3503 32.9614 22.888C31.9751 22.423 31.1976 21.7735 30.6315 20.9341C30.0626 20.0947 29.7167 19.1476 29.5881 18.0955H46.2287C46.3545 15.7134 46.0515 13.7396 45.3196 12.1742C44.5878 10.6089 43.4672 9.42915 41.9635 8.64079L41.9692 8.63228ZM29.8225 15.3078C30.1513 14.0034 30.8717 12.9314 31.9837 12.092C33.0957 11.2526 34.5108 10.8329 36.2289 10.8329C37.947 10.8329 39.2477 11.2271 40.2854 12.0183C41.3203 12.8066 41.8892 13.9041 41.9921 15.3078H29.8254H29.8225Z" fill="#2D2D2D"/>
<path id="Vector_3" d="M65.45 18.4528C65.2442 19.037 64.9526 19.6354 64.5581 20.2507C63.9892 21.1412 63.2374 21.887 62.3026 22.4882C61.3678 23.0894 60.23 23.39 58.8921 23.39C57.9573 23.39 57.134 23.251 56.4279 22.976C55.719 22.7009 55.1701 22.2301 54.7784 21.5666C54.3868 20.903 54.1924 19.9813 54.1924 18.8016V7.86096H49.9844V19.5928C49.9844 21.0476 50.2131 22.25 50.6676 23.2028C51.1221 24.1557 51.7225 24.9072 52.4686 25.4573C53.2147 26.0103 54.0466 26.4045 54.97 26.6427C55.8933 26.8809 56.8081 27 57.7172 27C58.9808 27 60.0528 26.7788 60.939 26.3421C61.8223 25.9026 62.5627 25.3382 63.1573 24.6491C63.752 23.96 64.2294 23.234 64.5981 22.4684C64.9641 21.7027 65.2299 20.9966 65.3957 20.3443C65.4157 20.2621 65.4329 20.1883 65.4529 20.1118V26.586H69.6609V7.86096H65.4529V18.4528H65.45Z" fill="#2D2D2D"/>
<path id="Vector_4" d="M93.5018 7.86096H88.3818L83.3591 14.1452L77.999 7.86096H72.8047L80.912 17.1058L72.8047 26.586H77.959L83.2847 19.8963L88.8392 26.586H93.9935L85.729 16.9215L93.5018 7.86096Z" fill="#2D2D2D"/>
<path id="Vector_5" d="M112.302 0.86499H107.934V4.17441H112.302V0.86499Z" fill="#2D2D2D"/>
<path id="Vector_6" d="M103.299 22.9873H98.6445V26.5803H103.299V22.9873Z" fill="#33BD33"/>
<path id="Vector_7" d="M132.505 26.2712C133.257 26.0784 133.983 25.7863 134.667 25.4034C137.562 23.7728 139.472 21.0164 139.907 17.8374C140.341 14.6556 139.283 11.5334 137.005 9.2732C134.275 6.56781 130.373 5.63199 126.568 6.77199C125.133 7.2002 123.769 8.02827 122.628 9.15977L121.042 10.7337L123.986 13.6574L125.561 12.0977C126.19 11.4738 126.951 11.0059 127.766 10.745C129.401 10.2232 131.105 10.3508 132.565 11.1052C134.063 11.8765 135.184 13.249 135.719 14.9704C136.024 15.9459 136.022 16.9782 135.719 17.9537C135.181 19.6722 134.063 21.0448 132.565 21.8189C131.105 22.5733 129.401 22.7009 127.766 22.1791C126.954 21.921 126.193 21.4531 125.561 20.8292L112.5 7.8723H107.938V26.5973H112.103V13.3256L122.514 23.6537C125.118 26.2372 128.855 27.2184 132.508 26.2797L132.505 26.2712Z" fill="#2D2D2D"/>
</g>
<defs>
<clipPath id="clip0_2006_865">
<rect width="140" height="27" fill="white"/>
</clipPath>
</defs>
</svg>
